PathFileType	4	(X/Y/Z)	c:/Users/goper/Files/vsCode/490R/osim_files/A06/A06_Static.trc
DataRate	CameraRate	NumFrames	NumMarkers	Units                	OrigDataRate	OrigDataStartFrame	OrigNumFrames
120.00	120.00	8	36	mm	120.0	1151	1315
                Frame#	Time	LPSIS			LASIS			LTH1			LTH2			LTH3			LTH4			LLFE			LMFE			LSH1			LSH2			LSH3			LSH4			LLMAL			LMMAL			LCAL			LMTP5			LTOE			LMTP1			RPSIS			RASIS			RTH1			RTH2			RTH3			RTH4			RLFE			RMFE			RSH1			RSH2			RSH3			RSH4			RLMAL			RMMAL			RCAL			RMTP1			RTOE			RMTP5		
		X1	Y1	Z1	X2	Y2	Z2	X3	Y3	Z3	X4	Y4	Z4	X5	Y5	Z5	X6	Y6	Z6	X7	Y7	Z7	X8	Y8	Z8	X9	Y9	Z9	X10	Y10	Z10	X11	Y11	Z11	X12	Y12	Z12	X13	Y13	Z13	X14	Y14	Z14	X15	Y15	Z15	X16	Y16	Z16	X17	Y17	Z17	X18	Y18	Z18	X19	Y19	Z19	X20	Y20	Z20	X21	Y21	Z21	X22	Y22	Z22	X23	Y23	Z23	X24	Y24	Z24	X25	Y25	Z25	X26	Y26	Z26	X27	Y27	Z27	X28	Y28	Z28	X29	Y29	Z29	X30	Y30	Z30	X31	Y31	Z31	X32	Y32	Z32	X33	Y33	Z33	X34	Y34	Z34	X35	Y35	Z35	X36	Y36	Z36

1151	9.58333	-299.42807	985.41766	429.04956	-112.63908	949.38763	350.51108	-214.45917	598.75464	301.39227	-210.42682	556.16205	305.96783	-151.22643	594.48254	315.92123	-158.82550	552.33276	318.09653	-192.62152	480.02325	322.97452	-194.39912	469.42154	431.06281	-259.33109	390.16849	305.39423	-254.79633	344.60629	297.84058	-197.12077	389.36169	311.17523	-200.20923	347.53409	305.73135	-253.66872	92.81326	333.60352	-234.98149	110.82236	416.67300	-314.61926	78.03546	383.72189	-134.53452	42.23681	312.55811	-94.16462	62.44250	367.97501	-117.94496	55.21844	407.29492	-289.05405	996.61304	560.55603	-113.46599	953.03326	613.21057	-244.75203	600.95105	651.31403	-241.85518	557.17267	653.11713	-181.80045	595.74133	644.25104	-189.09348	552.96021	648.05225	-228.12096	439.76425	631.54688	-228.25317	437.94693	542.41315	-262.19089	286.10629	624.63190	-265.20789	238.50383	624.79559	-202.90443	277.60474	613.14722	-214.25264	230.59590	618.94067	-280.43872	102.52813	638.70398	-267.71881	101.54773	555.41852	-338.02313	81.04763	592.50409	-136.48952	53.97861	562.34760	-120.85812	65.15727	602.46539	-147.64427	51.56286	650.09064
1152	9.59167	-299.45444	985.38171	429.04477	-112.65646	949.36957	350.51385	-214.45131	598.74408	301.38568	-210.41205	556.14465	305.95038	-151.22417	594.47723	315.91766	-158.82198	552.30945	318.08832	-192.64052	479.99332	322.96338	-194.47943	469.41028	431.07947	-259.34824	390.14789	305.37564	-254.77145	344.59402	297.81799	-197.13889	389.34702	311.14069	-200.26527	347.51834	305.71320	-253.66934	92.81571	333.59818	-235.02992	110.80184	416.67731	-314.58911	77.99575	383.71765	-134.57828	42.22346	312.55554	-94.18243	62.41460	367.95746	-117.99306	55.20617	407.28833	-289.15036	996.61377	560.54266	-113.52503	953.02820	613.21686	-244.81255	600.93994	651.31445	-241.84416	557.17969	653.26141	-182.24620	597.02289	642.94080	-189.14366	552.95673	648.06323	-228.15096	439.76859	631.54913	-228.26553	437.95636	542.41254	-262.07819	286.01297	624.51337	-265.23947	238.51208	624.79523	-202.92514	277.59372	613.15802	-214.28304	230.58131	618.94983	-280.47858	102.50448	638.69226	-267.70215	101.53144	555.39386	-338.09473	81.04754	592.48480	-136.47769	53.97190	562.32294	-120.86224	65.13146	602.46417	-147.68626	51.55573	650.07458
1153	9.60000	-299.47293	985.39484	429.04034	-112.68412	949.36572	350.51779	-214.45110	598.72729	301.38269	-210.41980	556.14691	305.94287	-151.23946	594.46289	315.92236	-158.84242	552.32104	318.08435	-192.63103	480.00458	322.95630	-194.43539	469.46979	431.03970	-259.30240	390.12247	305.31482	-254.77533	344.58896	297.81100	-197.13464	389.35336	311.14059	-200.26274	347.52023	305.70340	-253.66570	92.78902	333.58762	-234.98262	110.85870	416.65414	-314.59369	77.97797	383.72052	-134.55565	42.26223	312.50562	-94.19198	62.44962	367.92856	-117.96034	55.24507	407.24579	-289.16721	996.66101	560.48956	-113.51081	953.08350	613.18018	-244.80655	600.97992	651.28259	-241.92067	557.20367	653.08020	-181.81960	595.80310	644.21185	-189.09279	552.99811	648.02917	-228.15941	439.80011	631.51697	-228.28386	437.95245	542.41077	-262.23047	286.13202	624.60089	-265.24774	238.53470	624.76892	-202.87665	277.64999	613.10565	-214.24734	230.64067	618.92126	-280.45090	102.54336	638.66656	-267.71176	101.51546	555.39923	-338.10510	81.12076	592.42444	-136.51556	53.96244	562.32098	-120.84868	65.14471	602.45905	-147.66219	51.58123	650.04395
1154	9.60833	-300.29175	985.70502	428.95557	-112.70961	949.36664	350.51514	-214.43739	598.71930	301.37302	-210.43266	556.15942	305.95020	-151.24370	594.49030	315.91891	-158.84030	552.31079	318.10794	-192.64305	479.99835	322.96548	-194.43138	469.54208	431.00977	-259.29904	390.11993	305.32278	-254.79236	344.58615	297.82605	-197.16203	389.34772	311.15128	-200.29347	347.50565	305.71103	-253.65851	92.80571	333.58206	-234.98276	110.91051	416.60117	-314.58563	78.00228	383.70270	-134.52751	42.30253	312.49106	-94.15624	62.51658	367.88623	-117.90477	55.33619	407.20654	-289.25934	996.75775	560.44446	-113.47482	953.16064	613.14459	-244.79099	601.02795	651.26874	-241.88365	557.24286	653.20825	-182.18259	597.17334	642.84924	-189.07251	553.05945	648.00067	-228.16423	439.85080	631.49249	-228.28139	437.96500	542.41260	-262.04800	286.08389	624.47449	-265.23883	238.58168	624.75275	-202.85800	277.71506	613.07086	-214.21530	230.67105	618.88586	-280.48895	102.56821	638.62366	-267.70795	101.51617	555.40021	-338.11792	81.18211	592.36377	-136.49498	53.97118	562.32800	-120.83537	65.15742	602.45941	-147.63303	51.63054	650.03113
1155	9.61667	-300.30630	985.73737	428.93814	-112.71168	949.35736	350.52985	-214.43953	598.73737	301.38458	-210.41002	556.16370	305.96005	-151.24966	594.48743	315.94794	-158.84341	552.30286	318.13245	-192.62531	480.01373	322.97754	-194.48210	469.52032	430.99896	-259.31195	390.14023	305.34387	-254.79015	344.59741	297.82776	-197.16252	389.34354	311.15814	-200.25890	347.51547	305.73016	-253.66913	92.81034	333.60123	-234.98438	110.90987	416.60825	-314.59875	78.02686	383.70706	-134.56133	42.30733	312.50497	-94.16584	62.53720	367.89380	-117.93396	55.32303	407.22281	-289.32651	996.79254	560.43054	-113.52269	953.15735	613.13538	-244.83949	601.03845	651.26917	-241.90367	557.24384	653.21320	-182.23900	597.16156	642.84955	-189.11121	553.04346	648.00140	-228.17398	439.85303	631.49438	-228.26286	437.95770	542.41235	-262.09491	286.07214	624.46130	-265.26093	238.57411	624.73328	-202.89758	277.72244	613.08795	-214.23926	230.68123	618.90063	-280.48895	102.58217	638.61444	-267.69412	101.54250	555.39185	-338.17734	81.22235	592.36389	-136.49574	53.95499	562.34485	-120.81699	65.17489	602.46210	-147.64099	51.63217	650.00806
1156	9.62500	-299.53284	985.42438	429.00946	-112.73574	949.35968	350.54153	-214.43506	598.72919	301.37106	-210.42490	556.17474	305.96170	-151.22502	594.47552	315.95251	-158.83812	552.29993	318.14429	-192.63768	480.00388	322.98578	-194.49460	469.50473	431.02292	-259.34839	390.17249	305.39001	-254.78514	344.60574	297.83023	-197.15974	389.36465	311.17633	-200.27908	347.52002	305.73471	-253.64697	92.81450	333.59933	-234.96783	110.87772	416.62085	-314.62500	78.06512	383.71658	-134.55014	42.30218	312.51651	-94.14880	62.50997	367.91772	-117.91102	55.28995	407.25528	-289.32742	996.76044	560.45471	-113.56944	953.10620	613.15375	-244.81387	601.03107	651.27118	-241.87727	557.22229	653.22101	-182.23041	597.12415	642.85406	-189.11406	553.00397	648.00909	-228.15642	439.82803	631.50739	-228.26144	437.95700	542.40875	-262.21854	286.16000	624.58630	-265.22287	238.54796	624.74274	-202.88124	277.69443	613.10229	-214.25063	230.63765	618.89465	-280.46915	102.54441	638.65686	-267.69269	101.53381	555.41455	-338.14444	81.19205	592.38477	-136.46837	53.98289	562.34686	-120.82941	65.16248	602.46985	-147.62538	51.62005	650.03967
1157	9.63333	-300.35220	985.74005	428.93805	-112.73447	949.34491	350.54782	-214.44075	598.72369	301.38168	-210.42958	556.16541	305.97171	-151.26189	594.48877	315.95407	-158.83928	552.31482	318.15561	-192.64560	480.00369	322.99631	-194.53957	469.44473	431.05392	-259.31161	390.14087	305.34525	-254.78816	344.59015	297.83627	-197.16301	389.36331	311.16721	-200.27977	347.51733	305.74088	-253.64519	92.79717	333.60483	-234.98636	110.82970	416.65179	-314.62680	78.06335	383.76111	-134.56490	42.26976	312.54517	-94.16624	62.46548	367.97330	-117.94764	55.22832	407.28207	-289.29794	996.67621	560.51947	-113.64013	953.04724	613.17743	-244.84972	600.96771	651.28815	-241.88210	557.20093	653.24048	-182.29156	597.04401	642.89832	-189.16306	552.96234	648.04071	-228.14798	439.78848	631.53394	-228.27504	437.95480	542.41052	-262.05621	286.03104	624.48755	-265.21033	238.52998	624.76605	-202.90202	277.64743	613.14679	-214.26871	230.59787	618.92596	-280.46442	102.51258	638.67651	-267.68536	101.54885	555.41809	-338.08600	81.13306	592.46045	-136.48425	53.96114	562.34027	-120.85347	65.14936	602.46423	-147.62843	51.58998	650.06763
1158	9.64167	-300.40701	985.70618	428.93427	-112.77847	949.34491	350.53687	-214.45010	598.70966	301.36765	-210.45958	556.14923	305.96655	-151.27000	594.48187	315.95264	-158.85396	552.30780	318.15567	-192.65666	479.99408	322.99179	-194.62708	469.40778	431.08713	-259.35849	390.13251	305.35043	-254.79205	344.57831	297.83011	-197.19411	389.35675	311.15131	-200.32463	347.50613	305.73608	-253.66704	92.79538	333.60715	-235.03706	110.80687	416.69019	-314.62256	78.04326	383.71735	-134.56979	42.22615	312.57800	-94.19636	62.42017	367.98590	-118.01226	55.19120	407.31519	-289.33362	996.60687	560.56793	-113.71844	953.00800	613.21808	-244.86282	600.94330	651.31567	-241.91586	557.17053	653.26593	-182.35616	596.99945	642.92499	-189.22992	552.92542	648.06024	-228.18700	439.76364	631.55585	-228.30646	437.95282	542.40344	-262.11011	285.99982	624.51233	-265.24274	238.50313	624.80096	-202.97318	277.57205	613.16345	-214.30252	230.57127	618.95081	-280.49252	102.48425	638.68976	-267.70352	101.53390	555.40363	-338.07410	81.05134	592.52203	-136.50885	53.95865	562.34088	-120.83754	65.13831	602.47351	-147.68085	51.55830	650.10016
